<svg xmlns="http://www.w3.org/2000/svg" width="554" height="554"><path d="M553.71 277c0 152.823-123.887 276.71-276.71 276.71C124.177 553.71.29 429.823.29 277 .29 124.177 124.177.29 277 .29 429.823.29 553.71 124.177 553.71 277z" fill="#92EFE5"/><g fill="#fff"><path d="M249.345 120.072c-9.58.042-19.278.692-29.027 1.975C95.53 138.467 7.65 252.937 24.07 377.727c.136 1.032.27 2.083.42 3.11 15.964-82.488 83.048-149.312 170.93-160.876C305.33 205.5 406.174 282.9 420.636 392.81c6.447 49.003-5.417 96.18-30.225 134.722 61.365-48.073 96.493-126.352 85.587-209.235-15.137-115.038-113.593-198.72-226.652-198.223z"/><path d="M402.186 153.985c-21.438-12.126-46.752-17.803-73.086-14.702-65.9 7.76-113.036 67.493-105.276 133.392 7.76 65.9 67.46 113.004 133.36 105.244a121.503 121.503 0 0 0 10.638-1.743c-32.225-18.213-55.646-50.996-60.306-90.574-7.337-62.306 34.4-119.054 94.67-131.618z"/><path d="M324.313 182.727c2.272-38.93 35.674-68.648 74.605-66.376 38.93 2.273 68.648 35.675 66.376 74.606-2.272 38.93-35.674 68.648-74.605 66.376-38.932-2.272-68.65-35.674-66.377-74.605zM266.33 195.112c-22.31 11.123-48.346 18.322-76.414 20.653 2.45 34.607-10.223 67.475-32.967 91.324 3.545-.317 7.08-.765 10.652-1.406 55.568-9.965 95.318-56.646 98.727-110.572z"/></g></svg>
